<mxfile host="65bd71144e">
    <diagram id="YfLQU_7pIsObFUvdrNqj" name="Page-1">
        <mxGraphModel dx="760" dy="790" grid="1" gridSize="10" guides="1" tooltips="1" connect="1" arrows="1" fold="1" page="1" pageScale="1" pageWidth="827" pageHeight="1169" math="0" shadow="0">
            <root>
                <mxCell id="0"/>
                <mxCell id="1" parent="0"/>
                <mxCell id="91" value="Movement State Machine" style="swimlane;fontSize=20;fillColor=#0050ef;fontColor=#ffffff;strokeColor=#0050ef;strokeWidth=7;" parent="1" vertex="1">
                    <mxGeometry x="70" y="310" width="900" height="480" as="geometry"/>
                </mxCell>
                <mxCell id="94" value="Locomotion" style="rounded=1;whiteSpace=wrap;html=1;fontSize=24;fillColor=#60a917;fontColor=#ffffff;strokeColor=#2D7600;" parent="91" vertex="1">
                    <mxGeometry x="20" y="400" width="150" height="60" as="geometry"/>
                </mxCell>
                <mxCell id="100" value="Jump" style="rounded=1;whiteSpace=wrap;html=1;fontSize=24;fillColor=#60a917;fontColor=#ffffff;strokeColor=#2D7600;" parent="91" vertex="1">
                    <mxGeometry x="20" y="40" width="150" height="60" as="geometry"/>
                </mxCell>
                <mxCell id="102" style="edgeStyle=none;html=1;exitX=0.5;exitY=0;exitDx=0;exitDy=0;entryX=0.5;entryY=1;entryDx=0;entryDy=0;fillColor=#f0a30a;strokeColor=#BD7000;strokeWidth=7;" parent="91" source="94" target="100" edge="1">
                    <mxGeometry relative="1" as="geometry">
                        <mxPoint x="521" y="405" as="sourcePoint"/>
                        <mxPoint x="321" y="445" as="targetPoint"/>
                    </mxGeometry>
                </mxCell>
                <mxCell id="103" style="edgeStyle=none;html=1;exitX=1;exitY=0.5;exitDx=0;exitDy=0;entryX=0;entryY=0.5;entryDx=0;entryDy=0;fillColor=#f0a30a;strokeColor=#BD7000;strokeWidth=7;" parent="91" source="100" target="110" edge="1">
                    <mxGeometry relative="1" as="geometry">
                        <mxPoint x="206" y="20" as="sourcePoint"/>
                        <mxPoint x="716" y="290" as="targetPoint"/>
                    </mxGeometry>
                </mxCell>
                <mxCell id="104" style="edgeStyle=none;html=1;exitX=1;exitY=0.25;exitDx=0;exitDy=0;entryX=0;entryY=1;entryDx=0;entryDy=0;fillColor=#f0a30a;strokeColor=#BD7000;strokeWidth=7;" parent="91" source="94" target="110" edge="1">
                    <mxGeometry relative="1" as="geometry">
                        <mxPoint x="206" y="20" as="sourcePoint"/>
                        <mxPoint x="616" y="230" as="targetPoint"/>
                    </mxGeometry>
                </mxCell>
                <mxCell id="110" value="FallingLoop" style="rounded=1;whiteSpace=wrap;html=1;fontSize=24;fillColor=#1ba1e2;fontColor=#ffffff;strokeColor=#006EAF;" vertex="1" parent="91">
                    <mxGeometry x="281" y="40" width="150" height="60" as="geometry"/>
                </mxCell>
                <mxCell id="112" value="Land" style="rounded=1;whiteSpace=wrap;html=1;fontSize=24;fillColor=#1ba1e2;fontColor=#ffffff;strokeColor=#006EAF;" vertex="1" parent="91">
                    <mxGeometry x="281" y="290" width="150" height="60" as="geometry"/>
                </mxCell>
                <mxCell id="113" value="LandMovement" style="rounded=1;whiteSpace=wrap;html=1;fontSize=24;fillColor=#1ba1e2;fontColor=#ffffff;strokeColor=#006EAF;" vertex="1" parent="91">
                    <mxGeometry x="431" y="400" width="180" height="60" as="geometry"/>
                </mxCell>
                <mxCell id="114" style="edgeStyle=none;html=1;exitX=0.5;exitY=1;exitDx=0;exitDy=0;entryX=0.5;entryY=0;entryDx=0;entryDy=0;fillColor=#f0a30a;strokeColor=#BD7000;strokeWidth=7;startArrow=none;" edge="1" parent="91" source="118" target="112">
                    <mxGeometry relative="1" as="geometry">
                        <mxPoint x="180" y="305" as="sourcePoint"/>
                        <mxPoint x="291" y="110" as="targetPoint"/>
                    </mxGeometry>
                </mxCell>
                <mxCell id="115" style="edgeStyle=none;html=1;exitX=0.5;exitY=1;exitDx=0;exitDy=0;entryX=1;entryY=0.5;entryDx=0;entryDy=0;fillColor=#f0a30a;strokeColor=#BD7000;strokeWidth=7;" edge="1" parent="91" source="112" target="94">
                    <mxGeometry relative="1" as="geometry">
                        <mxPoint x="366" y="230" as="sourcePoint"/>
                        <mxPoint x="366" y="300" as="targetPoint"/>
                    </mxGeometry>
                </mxCell>
                <mxCell id="116" style="edgeStyle=none;html=1;exitX=0;exitY=0.75;exitDx=0;exitDy=0;entryX=1;entryY=0.75;entryDx=0;entryDy=0;fillColor=#f0a30a;strokeColor=#BD7000;strokeWidth=7;" edge="1" parent="91" source="113" target="94">
                    <mxGeometry relative="1" as="geometry">
                        <mxPoint x="366" y="360" as="sourcePoint"/>
                        <mxPoint x="180" y="440" as="targetPoint"/>
                    </mxGeometry>
                </mxCell>
                <mxCell id="117" style="edgeStyle=none;html=1;exitX=1;exitY=1;exitDx=0;exitDy=0;entryX=0.5;entryY=0;entryDx=0;entryDy=0;fillColor=#f0a30a;strokeColor=#BD7000;strokeWidth=7;" edge="1" parent="91" source="118" target="113">
                    <mxGeometry relative="1" as="geometry">
                        <mxPoint x="366" y="110" as="sourcePoint"/>
                        <mxPoint x="366" y="180" as="targetPoint"/>
                    </mxGeometry>
                </mxCell>
                <mxCell id="118" value="ToLand" style="rhombus;whiteSpace=wrap;html=1;fillColor=#1ba1e2;fontColor=#ffffff;strokeColor=#006EAF;rounded=0;fontSize=24;" vertex="1" parent="91">
                    <mxGeometry x="281" y="150" width="150" height="90" as="geometry"/>
                </mxCell>
                <mxCell id="120" style="edgeStyle=none;html=1;exitX=0.5;exitY=1;exitDx=0;exitDy=0;entryX=0.5;entryY=0;entryDx=0;entryDy=0;fillColor=#f0a30a;strokeColor=#BD7000;strokeWidth=7;startArrow=none;" edge="1" parent="91" source="110" target="118">
                    <mxGeometry relative="1" as="geometry">
                        <mxPoint x="366" y="250" as="sourcePoint"/>
                        <mxPoint x="366" y="300" as="targetPoint"/>
                    </mxGeometry>
                </mxCell>
                <mxCell id="121" style="edgeStyle=none;html=1;exitX=1;exitY=1;exitDx=0;exitDy=0;entryX=0;entryY=0;entryDx=0;entryDy=0;fillColor=#f0a30a;strokeColor=#BD7000;strokeWidth=7;startArrow=none;" edge="1" parent="91" source="100" target="118">
                    <mxGeometry relative="1" as="geometry">
                        <mxPoint x="366" y="110" as="sourcePoint"/>
                        <mxPoint x="366" y="160" as="targetPoint"/>
                    </mxGeometry>
                </mxCell>
                <mxCell id="124" style="edgeStyle=orthogonalEdgeStyle;html=1;exitX=0.1;exitY=0.5;exitDx=0;exitDy=0;exitPerimeter=0;entryX=1;entryY=0.5;entryDx=0;entryDy=0;fontSize=24;strokeWidth=2;endArrow=none;endFill=0;" edge="1" parent="91" source="123" target="113">
                    <mxGeometry relative="1" as="geometry"/>
                </mxCell>
                <mxCell id="123" value="" style="shape=curlyBracket;whiteSpace=wrap;html=1;rounded=1;rotation=270;strokeWidth=2;gradientColor=#ffffff;size=0.5;gradientDirection=radial;" vertex="1" parent="91">
                    <mxGeometry x="678.5" y="162.5" width="30" height="375" as="geometry"/>
                </mxCell>
                <mxCell id="127" value="LandAdditive" style="rounded=1;whiteSpace=wrap;html=1;fontSize=24;fillColor=#a20025;fontColor=#ffffff;strokeColor=#6F0000;" vertex="1" parent="91">
                    <mxGeometry x="507" y="270" width="150" height="60" as="geometry"/>
                </mxCell>
                <mxCell id="129" style="edgeStyle=none;html=1;exitX=0.75;exitY=1;exitDx=0;exitDy=0;entryX=0.25;entryY=0;entryDx=0;entryDy=0;fillColor=#f0a30a;strokeColor=#BD7000;strokeWidth=7;" edge="1" parent="91" source="112" target="113">
                    <mxGeometry relative="1" as="geometry">
                        <mxPoint x="403.5" y="227.5" as="sourcePoint"/>
                        <mxPoint x="531" y="410" as="targetPoint"/>
                    </mxGeometry>
                </mxCell>
                <mxCell id="130" style="edgeStyle=none;html=1;exitX=1;exitY=0.5;exitDx=0;exitDy=0;fillColor=#f5f5f5;strokeColor=#666666;strokeWidth=7;entryX=0;entryY=0.25;entryDx=0;entryDy=0;" edge="1" parent="91" source="125" target="122">
                    <mxGeometry relative="1" as="geometry">
                        <mxPoint x="-149" y="-330" as="sourcePoint"/>
                        <mxPoint x="181" y="-330" as="targetPoint"/>
                    </mxGeometry>
                </mxCell>
                <mxCell id="131" style="edgeStyle=none;html=1;exitX=1;exitY=0.5;exitDx=0;exitDy=0;fillColor=#f5f5f5;strokeColor=#666666;strokeWidth=7;entryX=0;entryY=0.75;entryDx=0;entryDy=0;" edge="1" parent="91" source="127" target="122">
                    <mxGeometry relative="1" as="geometry">
                        <mxPoint x="667" y="225" as="sourcePoint"/>
                        <mxPoint x="720" y="237.5" as="targetPoint"/>
                    </mxGeometry>
                </mxCell>
                <mxCell id="132" value="Land" style="rounded=1;whiteSpace=wrap;html=1;fontSize=24;fillColor=#1ba1e2;fontColor=#ffffff;strokeColor=#006EAF;" vertex="1" parent="91">
                    <mxGeometry x="281" y="290" width="150" height="60" as="geometry"/>
                </mxCell>
                <mxCell id="133" value="LandMovement" style="rounded=1;whiteSpace=wrap;html=1;fontSize=24;fillColor=#1ba1e2;fontColor=#ffffff;strokeColor=#006EAF;" vertex="1" parent="91">
                    <mxGeometry x="431" y="400" width="180" height="60" as="geometry"/>
                </mxCell>
                <mxCell id="134" value="Locomotion" style="rounded=1;whiteSpace=wrap;html=1;fontSize=24;fillColor=#60a917;fontColor=#ffffff;strokeColor=#2D7600;" vertex="1" parent="91">
                    <mxGeometry x="20" y="400" width="150" height="60" as="geometry"/>
                </mxCell>
                <mxCell id="122" value="ApplyAdditive" style="rounded=1;whiteSpace=wrap;html=1;fontSize=24;fillColor=#008a00;fontColor=#ffffff;strokeColor=#005700;" vertex="1" parent="91">
                    <mxGeometry x="710" y="210" width="170" height="70" as="geometry"/>
                </mxCell>
                <mxCell id="125" value="Locomotion" style="rounded=1;whiteSpace=wrap;html=1;fontSize=24;fillColor=#60a917;fontColor=#ffffff;strokeColor=#2D7600;" vertex="1" parent="91">
                    <mxGeometry x="507" y="185" width="150" height="60" as="geometry"/>
                </mxCell>
                <mxCell id="135" value="Land" style="rounded=1;whiteSpace=wrap;html=1;fontSize=24;fillColor=#1ba1e2;fontColor=#ffffff;strokeColor=#006EAF;" vertex="1" parent="91">
                    <mxGeometry x="281" y="290" width="150" height="60" as="geometry"/>
                </mxCell>
                <mxCell id="136" value="LandMovement" style="rounded=1;whiteSpace=wrap;html=1;fontSize=24;fillColor=#1ba1e2;fontColor=#ffffff;strokeColor=#006EAF;" vertex="1" parent="91">
                    <mxGeometry x="431" y="400" width="180" height="60" as="geometry"/>
                </mxCell>
                <mxCell id="137" value="Locomotion" style="rounded=1;whiteSpace=wrap;html=1;fontSize=24;fillColor=#60a917;fontColor=#ffffff;strokeColor=#2D7600;" vertex="1" parent="91">
                    <mxGeometry x="20" y="400" width="150" height="60" as="geometry"/>
                </mxCell>
                <mxCell id="138" value="FallingLoop" style="rounded=1;whiteSpace=wrap;html=1;fontSize=24;fillColor=#1ba1e2;fontColor=#ffffff;strokeColor=#006EAF;" vertex="1" parent="91">
                    <mxGeometry x="281" y="40" width="150" height="60" as="geometry"/>
                </mxCell>
                <mxCell id="139" value="LandAdditive" style="rounded=1;whiteSpace=wrap;html=1;fontSize=24;fillColor=#a20025;fontColor=#ffffff;strokeColor=#6F0000;" vertex="1" parent="91">
                    <mxGeometry x="507" y="270" width="150" height="60" as="geometry"/>
                </mxCell>
            </root>
        </mxGraphModel>
    </diagram>
</mxfile>